<svg id="Layer_1" data-name="Layer 1" xmlns="http://www.w3.org/2000/svg" viewBox="0 0 30 30"><defs><style>.cls-1{fill:#fff;}</style></defs><title>SocialMedia_Twitter_CircleIcon_30x30</title><path class="cls-1" d="M15,0A15,15,0,1,0,30,15,15,15,0,0,0,15,0Zm6.82,11.5c0,.15,0,.3,0,.45a10,10,0,0,1-15.4,8.43,7.16,7.16,0,0,0,.84,0,7.06,7.06,0,0,0,4.37-1.51,3.52,3.52,0,0,1-3.29-2.44,3.51,3.51,0,0,0,1.59-.06A3.52,3.52,0,0,1,7.12,13s0,0,0,0a3.49,3.49,0,0,0,1.59.44,3.52,3.52,0,0,1-1.09-4.7,10,10,0,0,0,7.25,3.67,3.52,3.52,0,0,1,6-3.21,7,7,0,0,0,2.23-.85,3.53,3.53,0,0,1-1.55,1.95,7,7,0,0,0,2-.55A7.16,7.16,0,0,1,21.82,11.5Z"/></svg>