<svg id="Layer_1" data-name="Layer 1" xmlns="http://www.w3.org/2000/svg" viewBox="0 0 30 30"><defs><style>.cls-1{fill:#fff;}</style></defs><title>SocialMedia_Youtube_CircleIcon_30x30</title><path class="cls-1" d="M15,0A15,15,0,1,0,30,15,15,15,0,0,0,15,0Zm8.57,15.83a26,26,0,0,1-.17,2.77,3.71,3.71,0,0,1-.68,1.7A2.45,2.45,0,0,1,21,21c-2.4.17-6,.18-6,.18s-4.46,0-5.83-.17a2.91,2.91,0,0,1-1.89-.73,3.71,3.71,0,0,1-.68-1.7,25.93,25.93,0,0,1-.17-2.77v-1.3a25.93,25.93,0,0,1,.17-2.77,3.71,3.71,0,0,1,.68-1.7A2.45,2.45,0,0,1,9,9.33c2.4-.17,6-.17,6-.17h0s3.6,0,6,.17a2.45,2.45,0,0,1,1.72.73,3.71,3.71,0,0,1,.68,1.7,26,26,0,0,1,.17,2.77Z"/><polygon class="cls-1" points="13.23 17.41 17.86 15.01 13.23 12.59 13.23 17.41"/></svg>